<?xml version="1.0" encoding="utf-8"?>
<!-- Generator: Adobe Illustrator 22.1.0, SVG Export Plug-In . SVG Version: 6.00 Build 0)  -->
<svg height="80" version="1.1" id="logotype" xmlns="http://www.w3.org/2000/svg" xmlns:xlink="http://www.w3.org/1999/xlink" x="0px" y="0px"
	 viewBox="0 0 160 30.3" style="enable-background:new 0 0 160 30.3;" xml:space="preserve">
<style type="text/css">
	.st0{clip-path:url(#SVGID_2_);}
	.st1{fill:#1E2029;}
</style>
<title  id="logoTitleID">Pray As You Go Logo - return to homepage</title>
<desc  data-sentry-element="desc" data-sentry-source-file="PAYGLogo.tsx" id="logoDescID">
	The Pray As You Go brand name with an abstract graphic in the shape of a church arch, links to the homepage</desc>
<g>
	<defs>
		<rect id="SVGID_1_" y="1.3" width="160" height="27.9"/>
	</defs>
	<clipPath id="SVGID_2_">
		<use xlink:href="#SVGID_1_"  style="overflow:visible;"/>
	</clipPath>
	<g class="st0">
		<path class="st1" d="M22,13.7v-0.4c0-7.5-3.6-12-11-12c-7.4,0-11,4.5-11,12v0.4v2.8v10.7h22V16.5V13.7z M2.7,13.8
			c0-6.3,2.8-9.6,8.3-9.6c5.5,0,8.3,3.4,8.3,9.6v0.3c-4.6,1.2-8,5.3-8.2,10.2h0c-0.2-4.9-3.6-9-8.2-10.2V13.8z M2.7,17
			c3,1.1,5.3,3.9,5.5,7.3H2.7V17z M19.2,24.3h-5.4c0.2-3.4,2.4-6.2,5.4-7.3V24.3z M11,13.7c1.5,0,2.8-1.3,2.8-2.8
			c0-1.6-1.3-2.8-2.8-2.8c-1.5,0-2.8,1.3-2.8,2.8C8.2,12.5,9.4,13.7,11,13.7z M38.2,5.1h-8v20h3v-7.3h5c4.3,0,6.9-2.1,6.9-6.3
			C45,7.2,42.4,5.1,38.2,5.1z M42,11.5c0,2.3-1.4,3.5-4.1,3.5v0h-4.8V8h4.8C40.6,8,42,9.2,42,11.5z M48.4,5.1h8.7
			c3.7,0,6.2,2.1,6.2,5.9c0,3.8-1.7,5-4.2,5.6v0.3l4.6,7.9v0.3h-3.2l-4.6-8.2h-4.4v8.2h-3L48.4,5.1L48.4,5.1z M57,14.3
			c2,0,3.4-1.2,3.4-3.2c0-2-1.4-3.2-3.4-3.2h-5.6v6.4H57z M72.4,5.1L65,24.9v0.3h3l1.8-4.7h9.2l1.8,4.7h3v-0.3L76.3,5.1H72.4z
			 M74.5,8.6l3.4,9.2h0h-7.1l3.4-9.2H74.5z M88.8,17.4L81.6,5.4V5.1h3.1l5.5,9.2h0.3l5.5-9.2h3v0.3l-7.2,11.9v7.8h-3V17.4L88.8,17.4
			z M128.6,4.8c-5.7,0-9.7,4.3-9.7,10.4c0,5.9,3.6,10.2,9.4,10.2c2.7,0,4.9-0.9,6-3h0.2v2.7h2.8V14.6h-11.8v2.6h9v1.1
			c0,2.7-2,4.4-6.1,4.4c-4.1,0-6.6-3-6.6-7.5c0-4.5,3.6-7.5,6.7-7.5c3,0,4.9,1.5,5.7,3.9h3.2C136.4,7.2,134.4,4.8,128.6,4.8z
			 M140.7,15.1c0-6,4-10.3,9.6-10.3c5.6,0,9.6,4.3,9.6,10.3s-4,10.3-9.6,10.3C144.8,25.5,140.7,21.2,140.7,15.1z M150.4,22.6
			c3.9,0,6.6-3,6.6-7.5c0-4.5-2.7-7.5-6.6-7.5c-3.9,0-6.6,3-6.6,7.5C143.8,19.7,146.5,22.6,150.4,22.6z M110.7,10.7L110.7,10.7
			L110.7,10.7L110.7,10.7z M108.8,13c0.6,0,1.4-1.1,1.9-2.3h0.3c-0.6,1.4-1.6,2.9-2.6,2.9c-0.9,0-0.9-0.2-0.9-0.6c0-0.1,0-0.1,0-0.2
			c0-0.3,0.1-0.5,0.2-0.7c0-0.1,0.1-0.2,0.1-0.3l0.9-2.5h-0.1c-0.8,1.7-2.4,4.3-3.7,4.3c-1.2,0-1.2-0.7-1.2-1.7v0v-0.1v-0.1
			c0-2.7,2.5-6.9,4.6-6.9c1.6,0,1.6,0.4,1.4,1.1c0,0.2-0.1,0.4-0.1,0.6h0.1l0.5-1.3c0.3,0,0.7-0.2,0.9-0.5l0.2,0.1l-2.5,6.8
			c0,0,0,0.1-0.1,0.2c-0.1,0.2-0.2,0.5-0.2,0.6C108.5,12.8,108.6,13,108.8,13z M109.1,6.7c0,0.6-0.2,1.2-0.4,1.7v0
			c-0.6,1.8-2.5,4.5-3.6,4.5c-0.1,0-0.2,0.1-0.3,0.2c-0.2,0.2-0.2,0.3-0.2-1.4c0-2.5,2.1-6.2,3.7-6.2C108.9,5.5,109.1,6,109.1,6.7z
			 M110.6,12.1c0-0.4,0.2-0.5,0.5-0.5c0.2,0,0.3,0.2,0.4,0.5l0,0l0,0.1c0.2,0.7,0.6,1.1,1.4,1.1c0.8,0,1.3-0.6,1.3-1.5
			c0-0.7-0.1-0.9-0.4-1.3v0c0-0.1-0.1-0.1-0.2-0.2l-0.5-0.8c-0.6-1-0.9-1.5-0.9-2.2c0-1.3,1.1-2.2,2.4-2.2c1.3,0,1.7,0.7,1.7,1.2
			c0,0.5-0.2,0.5-0.5,0.5c-0.2,0-0.3-0.2-0.4-0.5c-0.2-0.5-0.4-0.8-1.1-0.8c-0.7,0-1.3,0.5-1.3,1.4c0,0.8,0.2,1,0.4,1.5l0,0l0,0
			c0,0.1,0.1,0.1,0.1,0.2l0.5,0.8l0.1,0.2c0.5,0.9,0.7,1.3,0.7,1.9c0,1.4-1,2.4-2.3,2.4C111.4,13.7,110.6,12.9,110.6,12.1
			L110.6,12.1z M94.7,28c-0.4,0-0.8,0.3-0.8,0.7c0,0.1-0.1,0.2-0.2,0.2c-0.2,0.2-0.4,0.3,0.9,0.3c1.8,0,3.4-1.9,5.1-4.4
			c1.7-2.4,2.7-4.6,2.7-6.3c0-1.1-0.3-1.5-0.6-1.5c-0.3,0-0.4,0-0.4,0.5c0,0.2,0.1,0.2,0.1,0.3c0.1,0.2,0.3,0.4,0.3,1.4
			c0,1.5-0.9,3.6-2.9,6.2c0.3-2.6,0.3-4.9,0.3-6.2c0-1.4-0.1-2-0.9-2c-0.8,0-1.5,1.4-2,2.8h0.3c0.5-1.2,1-2.1,1.4-2.1
			c0.3,0,0.4,0.2,0.4,1.4c0,1.3,0,3.9-0.3,7.2c-0.7,1.1-1.7,2.1-2.2,2.1c-0.2,0-0.4-0.1-0.6-0.2C95.1,28.1,95,28,94.7,28z
			 M102.2,23.4c0-3,2.3-6.4,4.4-6.4c1.9,0,1.9,0.8,1.9,2.1c0,0.1,0,0.3,0,0.4c0,3-2.3,6.3-4.4,6.3c-1.9,0-1.9-0.7-1.8-1.9
			C102.2,23.7,102.2,23.5,102.2,23.4L102.2,23.4z M107.5,19.4c0-1.1-0.4-1.9-1.2-1.9c-1.4,0-3.2,3.2-3.2,5.9c0,2.1,0.2,2,0.7,1.9
			c0.1,0,0.3-0.1,0.5-0.1C105.7,25.3,107.5,22.1,107.5,19.4L107.5,19.4z M110.1,20.4c-0.8,1.7-1.5,3.4-1.5,4.4l0,0
			c0,0.1,0,0.1,0,0.2c0,0.5,0,0.8,0.9,0.8c1,0,2.3-1.3,4.1-4.9h0.1l-1.1,3.1c0,0.1-0.1,0.2-0.1,0.2c-0.1,0.2-0.2,0.4-0.2,0.7
			c0,0.1,0,0.1,0,0.2c0,0.4,0,0.6,0.9,0.6c1.1,0,2.1-1.5,2.6-2.9h-0.3c-0.6,1.2-1.3,2.3-1.9,2.3c-0.2,0-0.3-0.2-0.3-0.4
			c0-0.2,0.1-0.6,0.2-0.8l0,0l2.3-6.8h-1.2c-0.1,1.2-1.1,3.4-1.9,4.7c-1.2,2.1-2.2,3.1-2.9,3.1c-0.2,0-0.4-0.2-0.3-0.6
			c0-0.7,0.6-2,1.3-3.5c0.3-0.6,0.5-1.2,0.8-1.9c0-0.1,0-0.1,0.1-0.2c0.2-0.5,0.3-0.8,0.3-1.1c0-0.1,0-0.2,0-0.3
			c0.1-0.3,0.1-0.5-0.7-0.5c-1,0-2.1,1.3-2.7,2.6h0.3c0.5-1,1.3-2,1.9-2c0.1,0,0.2,0.1,0.2,0.3c0,0.2-0.1,0.5-0.2,0.9
			c0,0.1-0.1,0.2-0.1,0.3C110.5,19.5,110.3,19.9,110.1,20.4z"/>
	</g>
</g>
</svg>
